# xmcd
#
# Track frame offsets: 
#        150
#        12658
#        44487
#        67993
#        93956
#        108548
#        126332
#        138837
#        169617
#        188882
#        205086
#        223696
#        236725
#        249857
#        262222
#        282309
#        302008
#        321377
#
# Disc length: 4602 seconds
#
# Revision: 0
# Processed by: cddbd v1.5.2PL0 Copyright (c) Steve Scherf et al.
# Submitted via: ExactAudioCopy v0.99pb3
#
DISCID=1011f812
DTITLE=Various Artist - Gold Digging - As Sampled By Mary J Blige
DYEAR=2007
DGENRE=Soul
TTITLE0=Betty Wright - Clean Up Woman
TTITLE1=Curtis Mayfield - You're So Good To Me
TTITLE2=Keni Burke - Risin' To The Top
TTITLE3=Mary Jane Girls - All Night Long
TTITLE4=Rufus - Sweet Thing
TTITLE5=Roy Ayres - Everybody Loves The Sunshine
TTITLE6=Marvin Gaye and Tammi Terrell - You're All I Need To Get By
TTITLE7=Barry White - It's Ecstasy When You Lay Down Next To Me
TTITLE8=Curtis Mayfield - Give Me Your Love
TTITLE9=Rose Royce - I'm Going Down
TTITLE10=Roy Ayres - Searchin'
TTITLE11=Al Green - I'm Glad You're Mine
TTITLE12=The Stylistics - You Are Everything
TTITLE13=Aretha Franklin - (You Make Me Feel Like) A Natural Woman
TTITLE14=Debra Laws - Very Special
TTITLE15=DeBarge - Dream
TTITLE16=Rick James - Moonchild
TTITLE17=The Trammps - Rubber Band
EXTD=
EXTT0=
EXTT1=
EXTT2=
EXTT3=
EXTT4=
EXTT5=
EXTT6=
EXTT7=
EXTT8=
EXTT9=
EXTT10=
EXTT11=
EXTT12=
EXTT13=
EXTT14=
EXTT15=
EXTT16=
EXTT17=
PLAYORDER=
